<svg width="17" height="17" viewBox="0 0 17 17" fill="none" xmlns="http://www.w3.org/2000/svg">
<rect width="17" height="17" rx="3" fill="#8AC1D3"/>
<path d="M9.38462 14H5.53846C4.69231 14 4 13.3077 4 12.4616V8.6154C4 7.76924 4.69231 7.07693 5.53846 7.07693H9.38462C10.2308 7.07693 10.9231 7.76924 10.9231 8.6154V12.4616C10.9231 13.3077 10.2308 14 9.38462 14Z" stroke="white" stroke-width="0.8" stroke-miterlimit="10" stroke-linecap="round" stroke-linejoin="round"/>
<path d="M7.46152 10.9231C7.67394 10.9231 7.84614 10.7509 7.84614 10.5385C7.84614 10.326 7.67394 10.1538 7.46152 10.1538C7.2491 10.1538 7.0769 10.326 7.0769 10.5385C7.0769 10.7509 7.2491 10.9231 7.46152 10.9231Z" stroke="white" stroke-width="0.8" stroke-miterlimit="10" stroke-linecap="round" stroke-linejoin="round"/>
<path d="M5.92319 9.38462C6.13561 9.38462 6.30781 9.21242 6.30781 9C6.30781 8.78759 6.13561 8.61539 5.92319 8.61539C5.71077 8.61539 5.53857 8.78759 5.53857 9C5.53857 9.21242 5.71077 9.38462 5.92319 9.38462Z" stroke="white" stroke-width="0.8" stroke-miterlimit="10" stroke-linecap="round" stroke-linejoin="round"/>
<path d="M9.00009 12.4616C9.21251 12.4616 9.38471 12.2894 9.38471 12.0769C9.38471 11.8645 9.21251 11.6923 9.00009 11.6923C8.78768 11.6923 8.61548 11.8645 8.61548 12.0769C8.61548 12.2894 8.78768 12.4616 9.00009 12.4616Z" stroke="white" stroke-width="0.8" stroke-miterlimit="10" stroke-linecap="round" stroke-linejoin="round"/>
<path d="M5.92319 12.4616C6.13561 12.4616 6.30781 12.2894 6.30781 12.0769C6.30781 11.8645 6.13561 11.6923 5.92319 11.6923C5.71077 11.6923 5.53857 11.8645 5.53857 12.0769C5.53857 12.2894 5.71077 12.4616 5.92319 12.4616Z" stroke="white" stroke-width="0.8" stroke-miterlimit="10" stroke-linecap="round" stroke-linejoin="round"/>
<path d="M7.0769 7.07692V5.53846C7.0769 4.69231 7.76921 4 8.61537 4H12.4615C13.3077 4 14 4.69231 14 5.53846V9.38462C14 10.2308 13.3077 10.9231 12.4615 10.9231H10.9231" stroke="white" stroke-width="0.8" stroke-miterlimit="10" stroke-linecap="round" stroke-linejoin="round"/>
<path d="M12.077 6.30768C12.2894 6.30768 12.4616 6.13548 12.4616 5.92307C12.4616 5.71065 12.2894 5.53845 12.077 5.53845C11.8646 5.53845 11.6924 5.71065 11.6924 5.92307C11.6924 6.13548 11.8646 6.30768 12.077 6.30768Z" stroke="white" stroke-width="0.8" stroke-miterlimit="10" stroke-linecap="round" stroke-linejoin="round"/>
<path d="M9.00009 9.38462C9.21251 9.38462 9.38471 9.21242 9.38471 9C9.38471 8.78759 9.21251 8.61539 9.00009 8.61539C8.78768 8.61539 8.61548 8.78759 8.61548 9C8.61548 9.21242 8.78768 9.38462 9.00009 9.38462Z" stroke="white" stroke-width="0.8" stroke-miterlimit="10" stroke-linecap="round" stroke-linejoin="round"/>
</svg>
