<svg width="28" height="27" viewBox="0 0 28 27" fill="none" xmlns="http://www.w3.org/2000/svg">
<path d="M26.7 10.5C25.1 10.7 23.6 10 22.7 8.5C21.9 7.1 22 5.3 23 4.1C21.5 2.7 19.7 1.7 17.8 1.1C17.2 2.5 15.8 3.5 14.1 3.5C12.4 3.5 11 2.5 10.4 1C8.4 1.6 6.6 2.6 5.2 4C6.1 5.3 6.3 7.1 5.4 8.5C4.6 9.9 3 10.7 1.4 10.5C1.2 11.5 1 12.5 1 13.5C1 14.5 1.1 15.6 1.4 16.5C3 16.3 4.5 17 5.4 18.5C6.2 19.9 6.1 21.7 5.1 22.9C6.6 24.3 8.4 25.3 10.3 25.9C10.9 24.5 12.3 23.4 14 23.4C15.7 23.4 17.1 24.4 17.7 25.9C19.7 25.3 21.5 24.3 22.9 22.9C22 21.7 21.8 19.9 22.6 18.5C23.4 17.1 25 16.3 26.6 16.5C26.8 15.5 27 14.5 27 13.5C27.1 12.5 27 11.4 26.7 10.5Z" stroke="#797979" stroke-miterlimit="10" stroke-linecap="round" stroke-linejoin="round"/>
<circle cx="14.1001" cy="13.5" r="5.5" stroke="#797979"/>
</svg>
