<svg width="673" height="571" viewBox="0 0 673 571" fill="none" xmlns="http://www.w3.org/2000/svg">
<line x1="25.5" y1="2.18557e-08" x2="25.5" y2="571" stroke="#CCCCCC" stroke-opacity="0.4"/>
<line x1="51.5" y1="2.18557e-08" x2="51.5" y2="571" stroke="#CCCCCC" stroke-opacity="0.4"/>
<line x1="77.5" y1="2.18557e-08" x2="77.5" y2="571" stroke="#CCCCCC" stroke-opacity="0.4"/>
<line x1="103.5" y1="2.18557e-08" x2="103.5" y2="571" stroke="#CCCCCC" stroke-opacity="0.4"/>
<line x1="129.5" y1="2.18557e-08" x2="129.5" y2="571" stroke="#CCCCCC" stroke-opacity="0.4"/>
<line x1="155.5" y1="2.18557e-08" x2="155.5" y2="571" stroke="#CCCCCC" stroke-opacity="0.4"/>
<line x1="181.5" y1="2.18557e-08" x2="181.5" y2="571" stroke="#CCCCCC" stroke-opacity="0.4"/>
<line x1="207.5" y1="2.18557e-08" x2="207.5" y2="571" stroke="#CCCCCC" stroke-opacity="0.4"/>
<line x1="25.5" y1="2.18557e-08" x2="25.5" y2="571" stroke="#CCCCCC" stroke-opacity="0.4"/>
<line x1="51.5" y1="2.18557e-08" x2="51.5" y2="571" stroke="#CCCCCC" stroke-opacity="0.4"/>
<line x1="77.5" y1="2.18557e-08" x2="77.5" y2="571" stroke="#CCCCCC" stroke-opacity="0.4"/>
<line x1="103.5" y1="2.18557e-08" x2="103.5" y2="571" stroke="#CCCCCC" stroke-opacity="0.4"/>
<line x1="129.5" y1="2.18557e-08" x2="129.5" y2="571" stroke="#CCCCCC" stroke-opacity="0.4"/>
<line x1="155.5" y1="2.18557e-08" x2="155.5" y2="571" stroke="#CCCCCC" stroke-opacity="0.4"/>
<line x1="181.5" y1="2.18557e-08" x2="181.5" y2="571" stroke="#CCCCCC" stroke-opacity="0.4"/>
<line x1="207.5" y1="2.18557e-08" x2="207.5" y2="571" stroke="#CCCCCC" stroke-opacity="0.4"/>
<line x1="233.5" y1="2.18557e-08" x2="233.5" y2="571" stroke="#CCCCCC" stroke-opacity="0.4"/>
<line x1="259.5" y1="2.18557e-08" x2="259.5" y2="571" stroke="#CCCCCC" stroke-opacity="0.4"/>
<line x1="285.5" y1="2.18557e-08" x2="285.5" y2="571" stroke="#CCCCCC" stroke-opacity="0.4"/>
<line x1="311.5" y1="2.18557e-08" x2="311.5" y2="571" stroke="#CCCCCC" stroke-opacity="0.4"/>
<line x1="337.5" y1="2.18557e-08" x2="337.5" y2="571" stroke="#CCCCCC" stroke-opacity="0.4"/>
<line x1="363.5" y1="2.18557e-08" x2="363.5" y2="571" stroke="#CCCCCC" stroke-opacity="0.4"/>
<line x1="389.5" y1="2.18557e-08" x2="389.5" y2="571" stroke="#CCCCCC" stroke-opacity="0.4"/>
<line x1="415.5" y1="2.18557e-08" x2="415.5" y2="571" stroke="#CCCCCC" stroke-opacity="0.4"/>
<line x1="441.5" y1="2.18557e-08" x2="441.5" y2="571" stroke="#CCCCCC" stroke-opacity="0.4"/>
<line x1="467.5" y1="2.18557e-08" x2="467.5" y2="571" stroke="#CCCCCC" stroke-opacity="0.4"/>
<line x1="493.5" y1="2.18557e-08" x2="493.5" y2="571" stroke="#CCCCCC" stroke-opacity="0.4"/>
<line x1="519.5" y1="2.18557e-08" x2="519.5" y2="571" stroke="#CCCCCC" stroke-opacity="0.4"/>
<line x1="545.5" y1="2.18557e-08" x2="545.5" y2="571" stroke="#CCCCCC" stroke-opacity="0.4"/>
<line x1="571.5" y1="2.18557e-08" x2="571.5" y2="571" stroke="#CCCCCC" stroke-opacity="0.4"/>
<line x1="597.5" y1="2.18557e-08" x2="597.5" y2="571" stroke="#CCCCCC" stroke-opacity="0.4"/>
<line x1="623.5" y1="2.18557e-08" x2="623.5" y2="571" stroke="#CCCCCC" stroke-opacity="0.4"/>
<line x1="649.5" y1="2.18557e-08" x2="649.5" y2="571" stroke="#CCCCCC" stroke-opacity="0.4"/>
<line x1="3.90417e-09" y1="545" x2="673" y2="545" stroke="#CCCCCC" stroke-opacity="0.4"/>
<line x1="3.90417e-09" y1="519" x2="673" y2="519" stroke="#CCCCCC" stroke-opacity="0.4"/>
<line x1="3.90417e-09" y1="493" x2="673" y2="493" stroke="#CCCCCC" stroke-opacity="0.4"/>
<line x1="3.90417e-09" y1="467" x2="673" y2="467" stroke="#CCCCCC" stroke-opacity="0.4"/>
<line x1="3.90417e-09" y1="441" x2="673" y2="441" stroke="#CCCCCC" stroke-opacity="0.4"/>
<line x1="3.90417e-09" y1="415" x2="673" y2="415" stroke="#CCCCCC" stroke-opacity="0.4"/>
<line x1="3.90417e-09" y1="545" x2="673" y2="545" stroke="#CCCCCC" stroke-opacity="0.4"/>
<line x1="3.90417e-09" y1="519" x2="673" y2="519" stroke="#CCCCCC" stroke-opacity="0.4"/>
<line x1="3.90417e-09" y1="493" x2="673" y2="493" stroke="#CCCCCC" stroke-opacity="0.4"/>
<line x1="3.90417e-09" y1="467" x2="673" y2="467" stroke="#CCCCCC" stroke-opacity="0.4"/>
<line x1="3.90417e-09" y1="441" x2="673" y2="441" stroke="#CCCCCC" stroke-opacity="0.4"/>
<line x1="3.90417e-09" y1="415" x2="673" y2="415" stroke="#CCCCCC" stroke-opacity="0.4"/>
<line x1="3.90417e-09" y1="389" x2="673" y2="389" stroke="#CCCCCC" stroke-opacity="0.4"/>
<line x1="3.90417e-09" y1="363" x2="673" y2="363" stroke="#CCCCCC" stroke-opacity="0.4"/>
<line x1="3.90417e-09" y1="337" x2="673" y2="337" stroke="#CCCCCC" stroke-opacity="0.4"/>
<line x1="3.90417e-09" y1="311" x2="673" y2="311" stroke="#CCCCCC" stroke-opacity="0.4"/>
<line x1="3.90417e-09" y1="285" x2="673" y2="285" stroke="#CCCCCC" stroke-opacity="0.4"/>
<line x1="3.90417e-09" y1="259" x2="673" y2="259" stroke="#CCCCCC" stroke-opacity="0.4"/>
<line x1="3.90417e-09" y1="233" x2="673" y2="233" stroke="#CCCCCC" stroke-opacity="0.4"/>
<line x1="3.90417e-09" y1="207" x2="673" y2="207" stroke="#CCCCCC" stroke-opacity="0.4"/>
<line x1="3.90417e-09" y1="181" x2="673" y2="181" stroke="#CCCCCC" stroke-opacity="0.4"/>
<line x1="3.90417e-09" y1="155" x2="673" y2="155" stroke="#CCCCCC" stroke-opacity="0.4"/>
<line x1="3.90417e-09" y1="129" x2="673" y2="129" stroke="#CCCCCC" stroke-opacity="0.4"/>
<line x1="3.90417e-09" y1="103" x2="673" y2="103" stroke="#CCCCCC" stroke-opacity="0.4"/>
<line x1="3.90417e-09" y1="77" x2="673" y2="77" stroke="#CCCCCC" stroke-opacity="0.4"/>
<line x1="3.90417e-09" y1="51" x2="673" y2="51" stroke="#CCCCCC" stroke-opacity="0.4"/>
<line x1="3.90417e-09" y1="25" x2="673" y2="25" stroke="#CCCCCC" stroke-opacity="0.4"/>
</svg>
