<svg width="157" height="44" viewBox="0 0 157 44" fill="none" xmlns="http://www.w3.org/2000/svg">
<path d="M3.996 36.36C3.66 36.36 3.288 35.868 2.88 34.884C2.472 33.876 2.268 33.24 2.268 32.976C2.268 32.688 2.472 32.232 2.88 31.608C3.312 30.984 3.732 30.672 4.14 30.672C4.548 30.672 5.016 31.116 5.544 32.004C6.096 32.892 6.372 33.516 6.372 33.876C6.372 34.236 6.072 34.74 5.472 35.388C4.896 36.036 4.404 36.36 3.996 36.36ZM16.0644 26.496L15.4704 24.534C15.3744 24.294 15.2784 24.138 15.1824 24.066C14.8344 23.754 14.2644 23.598 13.4724 23.598C12.6924 23.598 12.1044 23.736 11.7084 24.012C11.3124 24.288 11.1144 24.78 11.1144 25.488C11.1144 26.256 11.4324 26.844 12.0684 27.252C12.2004 27.348 12.3624 27.45 12.5544 27.558L15.2904 28.98C16.7304 29.724 17.4504 30.84 17.4504 32.328C17.4504 32.964 17.3724 33.468 17.2164 33.84C17.0604 34.212 16.7484 34.668 16.2804 35.208C15.6324 35.916 14.6064 36.27 13.2024 36.27C12.0864 36.27 10.9164 36 9.69244 35.46C9.77644 34.308 9.81844 33.096 9.81844 31.824H10.4844L10.7364 32.796C10.9044 33.444 11.0304 33.864 11.1144 34.056C11.2104 34.236 11.3724 34.416 11.6004 34.596C12.2124 34.86 12.8844 34.992 13.6164 34.992C14.3484 34.992 14.8884 34.854 15.2364 34.578C15.5844 34.29 15.7584 33.774 15.7584 33.03C15.7584 31.998 15.2064 31.188 14.1024 30.6L12.6444 29.88C11.9364 29.508 11.4744 29.256 11.2584 29.124C11.0424 28.992 10.8624 28.854 10.7184 28.71L10.5744 28.548C9.97444 27.9 9.67444 27.162 9.67444 26.334C9.67444 25.494 9.80644 24.828 10.0704 24.336C10.3464 23.832 10.8864 23.358 11.6904 22.914C12.2664 22.602 13.0164 22.446 13.9404 22.446C14.8764 22.446 15.7764 22.674 16.6404 23.13L16.8564 23.328C16.8564 23.928 16.8024 24.984 16.6944 26.496H16.0644ZM30.9604 26.838L32.3284 26.766C32.4964 26.766 32.5804 26.856 32.5804 27.036C32.5804 27.084 32.5564 27.132 32.5084 27.18C32.4724 27.228 32.3944 27.336 32.2744 27.504C32.1544 27.66 32.0104 27.876 31.8424 28.152C31.1584 29.34 30.3244 31.278 29.3404 33.966C28.9204 35.13 28.6624 35.778 28.5664 35.91C28.4824 36.042 28.4044 36.132 28.3324 36.18C28.2244 36.24 28.0504 36.27 27.8104 36.27C27.5824 36.27 27.4084 36.168 27.2884 35.964C27.1804 35.748 27.0184 35.286 26.8024 34.578C26.5984 33.858 26.4424 33.324 26.3344 32.976C26.2264 32.628 26.0644 32.082 25.8484 31.338C25.6444 30.582 25.5064 30.078 25.4344 29.826L24.6604 31.662C24.0724 33.162 23.7184 34.08 23.5984 34.416C23.4904 34.74 23.4064 34.98 23.3464 35.136C23.2864 35.28 23.2264 35.424 23.1664 35.568C23.1064 35.7 23.0524 35.802 23.0044 35.874C22.9564 35.946 22.9084 36.012 22.8604 36.072C22.8244 36.132 22.7764 36.174 22.7164 36.198C22.5964 36.246 22.4284 36.27 22.2124 36.27C21.9964 36.27 21.8344 36.174 21.7264 35.982C21.6184 35.778 21.4564 35.322 21.2404 34.614C21.0364 33.906 20.8864 33.39 20.7904 33.066C20.6944 32.742 20.5744 32.328 20.4304 31.824C20.2864 31.308 20.1604 30.876 20.0524 30.528C19.9564 30.18 19.8484 29.814 19.7284 29.43C19.3924 28.362 19.0504 27.774 18.7024 27.666C18.5824 27.63 18.4504 27.612 18.3064 27.612C18.1624 27.6 18.0664 27.588 18.0184 27.576L17.9824 26.982C18.7984 26.874 19.4164 26.766 19.8364 26.658C20.2564 26.538 20.4904 26.478 20.5384 26.478C20.7544 26.478 20.8624 26.568 20.8624 26.748C20.8624 27.096 21.3304 28.98 22.2664 32.4L22.7524 34.11C24.0124 30.762 24.6424 28.728 24.6424 28.008C24.6424 27.864 24.5944 27.69 24.4984 27.486C24.4024 27.282 24.3544 27.15 24.3544 27.09C24.3544 26.874 24.7984 26.766 25.6864 26.766C25.8784 26.766 26.0104 26.778 26.0824 26.802C26.1544 26.814 26.2084 26.826 26.2444 26.838C26.2924 26.838 26.3284 26.85 26.3524 26.874C26.3764 26.898 26.3944 26.916 26.4064 26.928C26.4544 26.94 26.4784 26.976 26.4784 27.036C26.5384 27.54 27.0244 29.436 27.9364 32.724L28.3144 34.11C29.5864 30.75 30.2224 28.704 30.2224 27.972C30.2224 27.768 30.1864 27.63 30.1144 27.558C30.0544 27.474 29.9824 27.432 29.8984 27.432C29.6824 27.456 29.5744 27.36 29.5744 27.144C29.5744 26.916 29.7784 26.802 30.1864 26.802L30.9604 26.838ZM33.9943 34.938C33.7423 34.59 33.5323 34.11 33.3643 33.498C33.1963 32.874 33.1123 32.094 33.1123 31.158C33.1123 30.21 33.3583 29.334 33.8503 28.53C34.1743 28.026 34.7383 27.57 35.5423 27.162C36.3463 26.742 37.0123 26.532 37.5403 26.532C38.6083 26.532 39.5203 26.874 40.2763 27.558C41.0323 28.242 41.4103 29.31 41.4103 30.762C41.4103 32.202 41.1463 33.324 40.6183 34.128C39.9103 35.076 39.2203 35.7 38.5483 36C38.0923 36.204 37.6183 36.306 37.1263 36.306C36.6343 36.306 36.2323 36.27 35.9203 36.198C35.6083 36.138 35.2723 36 34.9123 35.784C34.5643 35.568 34.2583 35.286 33.9943 34.938ZM34.8223 31.392C34.8223 32.688 35.0683 33.618 35.5603 34.182C36.0643 34.746 36.7903 35.028 37.7383 35.028C38.0983 35.028 38.3623 34.998 38.5303 34.938C39.3583 34.614 39.7723 33.366 39.7723 31.194C39.7723 30.174 39.6343 29.43 39.3583 28.962C39.0943 28.482 38.6323 28.14 37.9723 27.936C37.6363 27.852 37.3303 27.81 37.0543 27.81C36.7783 27.81 36.5743 27.816 36.4423 27.828C36.3223 27.84 36.1603 27.876 35.9563 27.936C35.7523 27.996 35.5963 28.098 35.4883 28.242C35.3803 28.374 35.2663 28.56 35.1463 28.8C34.9303 29.232 34.8223 30.096 34.8223 31.392ZM45.3631 29.484L45.3451 34.362C45.3451 34.734 45.4531 34.98 45.6691 35.1C45.8851 35.208 46.2091 35.292 46.6411 35.352C47.0851 35.412 47.3251 35.442 47.3611 35.442V36H42.3211V35.388C42.6091 35.352 42.8011 35.334 42.8971 35.334C42.9931 35.322 43.1131 35.286 43.2571 35.226C43.4131 35.154 43.5031 35.094 43.5271 35.046C43.5511 34.986 43.5871 34.866 43.6351 34.686C43.6831 34.506 43.7071 34.326 43.7071 34.146V32.724C43.7071 30.312 43.6651 28.896 43.5811 28.476C43.4851 28.008 43.1371 27.774 42.5371 27.774L42.5011 27.09C42.9811 27.042 43.4731 26.928 43.9771 26.748C44.4811 26.568 44.8051 26.478 44.9491 26.478C45.0931 26.478 45.1951 26.55 45.2551 26.694C45.3151 26.826 45.3451 27.072 45.3451 27.432L45.3631 28.116C46.4191 27.096 47.2531 26.586 47.8651 26.586C48.3091 26.586 48.6151 26.64 48.7831 26.748C48.9511 26.856 49.0351 27.054 49.0351 27.342C49.0351 27.438 48.9391 28.086 48.7471 29.286H48.0991C48.0391 28.386 47.7331 27.936 47.1811 27.936C46.8691 27.936 46.4851 28.08 46.0291 28.368C45.5851 28.644 45.3631 29.016 45.3631 29.484ZM55.469 26.748L55.433 24.048C55.433 23.664 55.427 23.4 55.415 23.256C55.415 23.1 55.355 22.968 55.235 22.86C55.127 22.752 55.013 22.698 54.893 22.698C54.785 22.686 54.545 22.674 54.173 22.662L54.137 22.068C55.049 21.984 55.721 21.894 56.153 21.798C56.585 21.69 56.819 21.636 56.855 21.636C57.059 21.636 57.161 21.732 57.161 21.924C57.161 24.504 57.137 26.982 57.089 29.358C57.053 31.722 57.035 33.114 57.035 33.534C57.035 33.942 57.185 34.374 57.485 34.83C57.797 35.286 57.953 35.526 57.953 35.55C57.953 35.574 57.899 35.61 57.791 35.658C57.695 35.694 57.569 35.736 57.413 35.784C57.257 35.832 57.053 35.91 56.801 36.018C56.561 36.126 56.393 36.18 56.297 36.18C56.201 36.18 56.105 36.084 56.009 35.892C55.913 35.688 55.817 35.466 55.721 35.226C55.637 34.986 55.565 34.836 55.505 34.776C54.605 35.772 53.807 36.27 53.111 36.27C52.511 36.27 51.815 35.94 51.023 35.28C50.615 34.956 50.273 34.476 49.997 33.84C49.721 33.204 49.583 32.514 49.583 31.77C49.583 31.026 49.619 30.408 49.691 29.916C49.763 29.424 49.841 29.046 49.925 28.782C50.009 28.506 50.135 28.26 50.303 28.044C50.483 27.828 50.615 27.684 50.699 27.612C50.795 27.54 50.945 27.444 51.149 27.324L51.761 26.964C52.277 26.652 52.841 26.496 53.453 26.496C54.077 26.496 54.749 26.58 55.469 26.748ZM51.167 30.762C51.167 32.142 51.401 33.15 51.869 33.786C52.349 34.41 52.931 34.722 53.615 34.722C54.299 34.722 54.923 34.452 55.487 33.912C55.487 31.812 55.475 30.324 55.451 29.448C55.439 28.56 55.433 28.092 55.433 28.044C54.869 27.708 54.161 27.54 53.309 27.54C52.949 27.54 52.655 27.576 52.427 27.648C52.211 27.708 51.995 27.852 51.779 28.08C51.371 28.488 51.167 29.382 51.167 30.762ZM62.5312 36.36C62.1952 36.36 61.8232 35.868 61.4152 34.884C61.0072 33.876 60.8032 33.24 60.8032 32.976C60.8032 32.688 61.0072 32.232 61.4152 31.608C61.8472 30.984 62.2672 30.672 62.6752 30.672C63.0832 30.672 63.5512 31.116 64.0792 32.004C64.6312 32.892 64.9072 33.516 64.9072 33.876C64.9072 34.236 64.6072 34.74 64.0072 35.388C63.4312 36.036 62.9392 36.36 62.5312 36.36ZM67.7056 36V35.334C68.0656 35.31 68.3416 35.28 68.5336 35.244C68.7376 35.208 68.9176 35.13 69.0736 35.01C69.2416 34.89 69.3256 34.722 69.3256 34.506C69.3736 32.97 69.3976 31.146 69.3976 29.034C69.3976 26.91 69.3736 25.266 69.3256 24.102C69.3136 23.838 69.2176 23.664 69.0376 23.58C68.8696 23.484 68.5576 23.424 68.1016 23.4L67.8496 23.382V22.716C68.4976 22.764 69.3136 22.788 70.2976 22.788C71.2816 22.788 72.0436 22.77 72.5836 22.734L77.3176 22.716L77.5336 22.914C77.5096 23.01 77.4256 23.556 77.2816 24.552C77.1376 25.548 77.0596 26.112 77.0476 26.244H76.4356C76.2076 25.02 76.0636 24.336 76.0036 24.192C75.9556 24.036 75.8716 23.916 75.7516 23.832C75.3556 23.724 74.6296 23.67 73.5736 23.67C72.5296 23.67 71.8996 23.712 71.6836 23.796C71.4676 23.868 71.3536 24.03 71.3416 24.282C71.3176 24.93 71.2936 26.358 71.2696 28.566C72.9616 28.566 74.4376 28.536 75.6976 28.476L75.5176 29.808H75.2116C74.7796 29.496 73.4596 29.34 71.2516 29.34C71.2276 31.116 71.2156 32.838 71.2156 34.506C71.2156 34.794 71.4316 34.986 71.8636 35.082C72.2956 35.166 73.0636 35.208 74.1676 35.208C75.2836 35.208 75.9316 35.136 76.1116 34.992C76.4116 34.728 76.7176 33.996 77.0296 32.796L77.2816 31.824H77.9476C77.9116 32.136 77.8756 32.862 77.8396 34.002C77.8036 35.142 77.7856 35.808 77.7856 36H67.7056ZM79.2733 27.126C79.7653 27.078 80.2573 26.964 80.7493 26.784C81.2533 26.604 81.5773 26.514 81.7213 26.514C81.8773 26.514 81.9853 26.586 82.0453 26.73C82.1053 26.862 82.1353 27.108 82.1353 27.468V27.72C83.5153 26.94 84.5953 26.55 85.3753 26.55C86.1673 26.55 86.7133 26.766 87.0133 27.198C87.3133 27.618 87.4633 28.104 87.4633 28.656V34.668C87.4633 34.932 87.5173 35.112 87.6253 35.208C87.7453 35.304 88.0093 35.364 88.4173 35.388V36H84.7453V35.388C85.2013 35.352 85.4833 35.28 85.5913 35.172C85.7113 35.064 85.7713 34.872 85.7713 34.596V28.89C85.7713 28.59 85.6753 28.362 85.4833 28.206C85.3033 28.038 85.1113 27.942 84.9073 27.918C84.7153 27.882 84.4873 27.864 84.2233 27.864C83.9713 27.864 83.6293 27.936 83.1973 28.08C82.7653 28.212 82.4293 28.362 82.1893 28.53C82.1773 29.238 82.1593 29.976 82.1353 30.744C82.0873 32.304 82.0633 33.384 82.0633 33.984C82.0633 34.572 82.1233 34.95 82.2433 35.118C82.3633 35.274 82.6573 35.364 83.1253 35.388V36H79.3453V35.388C79.7053 35.34 79.9573 35.274 80.1013 35.19C80.2573 35.094 80.3533 34.956 80.3893 34.776C80.4373 34.464 80.4613 34.104 80.4613 33.696C80.4613 33.276 80.4433 32.304 80.4073 30.78C80.3713 29.244 80.3473 28.452 80.3353 28.404C80.3233 28.344 80.3053 28.29 80.2813 28.242C80.2693 28.182 80.2453 28.134 80.2093 28.098C80.1853 28.062 80.1613 28.032 80.1373 28.008C80.1253 27.984 80.0953 27.96 80.0473 27.936C79.9993 27.912 79.9633 27.9 79.9393 27.9C79.9153 27.888 79.8673 27.876 79.7953 27.864C79.7353 27.852 79.6933 27.84 79.6693 27.828C79.5973 27.816 79.4833 27.81 79.3273 27.81L79.2733 27.126ZM89.6318 33.84C89.4638 33.12 89.3798 32.346 89.3798 31.518C89.3798 30.678 89.4578 29.874 89.6138 29.106C89.6978 28.746 89.9078 28.428 90.2438 28.152C90.7838 27.648 91.2698 27.276 91.7018 27.036C92.1458 26.784 92.4698 26.64 92.6738 26.604C92.8898 26.568 93.2018 26.55 93.6098 26.55C94.0178 26.55 94.4738 26.598 94.9778 26.694C95.4818 26.79 95.8118 26.868 95.9678 26.928C95.9318 27.288 95.9138 28.188 95.9138 29.628H95.3738C95.2538 29.1 95.1578 28.722 95.0858 28.494C95.0258 28.266 94.7678 28.092 94.3118 27.972C93.8558 27.852 93.3098 27.792 92.6738 27.792C92.0378 27.792 91.5938 28.02 91.3418 28.476C91.1018 28.932 90.9818 29.808 90.9818 31.104C90.9818 32.268 91.1258 33.156 91.4138 33.768C91.7498 34.5 92.4218 34.866 93.4298 34.866C93.7898 34.866 94.1738 34.764 94.5818 34.56C94.9898 34.344 95.3078 34.128 95.5358 33.912L95.8958 33.588L96.2738 33.948C95.8058 34.524 95.3918 34.968 95.0318 35.28C94.6838 35.592 94.4198 35.796 94.2398 35.892C93.2198 36.42 92.1038 36.36 90.8918 35.712C90.3998 35.268 89.9798 34.644 89.6318 33.84ZM98.2072 34.938C97.9552 34.59 97.7452 34.11 97.5772 33.498C97.4092 32.874 97.3252 32.094 97.3252 31.158C97.3252 30.21 97.5712 29.334 98.0632 28.53C98.3872 28.026 98.9512 27.57 99.7552 27.162C100.559 26.742 101.225 26.532 101.753 26.532C102.821 26.532 103.733 26.874 104.489 27.558C105.245 28.242 105.623 29.31 105.623 30.762C105.623 32.202 105.359 33.324 104.831 34.128C104.123 35.076 103.433 35.7 102.761 36C102.305 36.204 101.831 36.306 101.339 36.306C100.847 36.306 100.445 36.27 100.133 36.198C99.8212 36.138 99.4852 36 99.1252 35.784C98.7772 35.568 98.4712 35.286 98.2072 34.938ZM99.0352 31.392C99.0352 32.688 99.2812 33.618 99.7732 34.182C100.277 34.746 101.003 35.028 101.951 35.028C102.311 35.028 102.575 34.998 102.743 34.938C103.571 34.614 103.985 33.366 103.985 31.194C103.985 30.174 103.847 29.43 103.571 28.962C103.307 28.482 102.845 28.14 102.185 27.936C101.849 27.852 101.543 27.81 101.267 27.81C100.991 27.81 100.787 27.816 100.655 27.828C100.535 27.84 100.373 27.876 100.169 27.936C99.9652 27.996 99.8092 28.098 99.7012 28.242C99.5932 28.374 99.4792 28.56 99.3592 28.8C99.1432 29.232 99.0352 30.096 99.0352 31.392ZM113.122 33.336L113.158 29.07C113.158 28.206 113.08 27.732 112.924 27.648C112.84 27.6 112.69 27.576 112.474 27.576H111.898L111.862 26.982C112.798 26.898 113.47 26.808 113.878 26.712C114.298 26.604 114.526 26.55 114.562 26.55C114.778 26.55 114.886 26.64 114.886 26.82C114.886 28.332 114.862 29.802 114.814 31.23C114.766 32.658 114.742 33.504 114.742 33.768C114.742 34.032 114.874 34.38 115.138 34.812C115.414 35.232 115.552 35.478 115.552 35.55C115.552 35.61 115.498 35.658 115.39 35.694C114.55 35.97 114.076 36.108 113.968 36.108C113.872 36.108 113.77 36.024 113.662 35.856C113.566 35.676 113.476 35.46 113.392 35.208C113.308 34.956 113.26 34.824 113.248 34.812C112.528 35.316 111.868 35.67 111.268 35.874C110.668 36.066 110.182 36.162 109.81 36.162C109.45 36.162 109.066 35.988 108.658 35.64C108.262 35.292 107.998 34.86 107.866 34.344C107.746 33.96 107.686 33.216 107.686 32.112V29.214C107.686 28.914 107.632 28.5 107.524 27.972C107.5 27.888 107.422 27.816 107.29 27.756C107.158 27.696 107.056 27.666 106.984 27.666C106.912 27.654 106.756 27.648 106.516 27.648L106.48 27.036C107.248 26.952 107.854 26.85 108.298 26.73C108.742 26.61 108.988 26.55 109.036 26.55C109.252 26.55 109.36 26.64 109.36 26.82L109.288 32.076C109.288 32.964 109.336 33.552 109.432 33.84C109.54 34.128 109.702 34.35 109.918 34.506C110.146 34.662 110.368 34.74 110.584 34.74C110.812 34.74 111.124 34.698 111.52 34.614C111.928 34.53 112.258 34.422 112.51 34.29C112.774 34.146 112.942 34.026 113.014 33.93C113.086 33.822 113.122 33.624 113.122 33.336ZM116.662 27.126C117.154 27.078 117.646 26.964 118.138 26.784C118.642 26.604 118.966 26.514 119.11 26.514C119.266 26.514 119.374 26.586 119.434 26.73C119.494 26.862 119.524 27.108 119.524 27.468V27.72C120.904 26.94 121.984 26.55 122.764 26.55C123.556 26.55 124.102 26.766 124.402 27.198C124.702 27.618 124.852 28.104 124.852 28.656V34.668C124.852 34.932 124.906 35.112 125.014 35.208C125.134 35.304 125.398 35.364 125.806 35.388V36H122.134V35.388C122.59 35.352 122.872 35.28 122.98 35.172C123.1 35.064 123.16 34.872 123.16 34.596V28.89C123.16 28.59 123.064 28.362 122.872 28.206C122.692 28.038 122.5 27.942 122.296 27.918C122.104 27.882 121.876 27.864 121.612 27.864C121.36 27.864 121.018 27.936 120.586 28.08C120.154 28.212 119.818 28.362 119.578 28.53C119.566 29.238 119.548 29.976 119.524 30.744C119.476 32.304 119.452 33.384 119.452 33.984C119.452 34.572 119.512 34.95 119.632 35.118C119.752 35.274 120.046 35.364 120.514 35.388V36H116.734V35.388C117.094 35.34 117.346 35.274 117.49 35.19C117.646 35.094 117.742 34.956 117.778 34.776C117.826 34.464 117.85 34.104 117.85 33.696C117.85 33.276 117.832 32.304 117.796 30.78C117.76 29.244 117.736 28.452 117.724 28.404C117.712 28.344 117.694 28.29 117.67 28.242C117.658 28.182 117.634 28.134 117.598 28.098C117.574 28.062 117.55 28.032 117.526 28.008C117.514 27.984 117.484 27.96 117.436 27.936C117.388 27.912 117.352 27.9 117.328 27.9C117.304 27.888 117.256 27.876 117.184 27.864C117.124 27.852 117.082 27.84 117.058 27.828C116.986 27.816 116.872 27.81 116.716 27.81L116.662 27.126ZM127.921 32.616L127.975 27.936H126.409V27.396L127.975 27.09V25.434L129.361 25.002C129.541 25.002 129.631 25.092 129.631 25.272L129.595 26.37V26.928H131.881L131.827 27.936H129.595L129.541 32.382C129.541 33.306 129.595 33.972 129.703 34.38C129.823 34.788 130.039 34.992 130.351 34.992C130.663 34.992 131.113 34.818 131.701 34.47L132.079 34.83C131.155 35.79 130.399 36.27 129.811 36.27C129.031 36.27 128.521 36.006 128.281 35.478C128.041 34.95 127.921 33.996 127.921 32.616ZM133.194 28.818C133.386 28.374 133.848 27.894 134.58 27.378C135.312 26.85 135.972 26.586 136.56 26.586C137.16 26.586 137.67 26.652 138.09 26.784C138.51 26.916 138.84 27.114 139.08 27.378C139.32 27.63 139.512 27.882 139.656 28.134C139.812 28.374 139.914 28.68 139.962 29.052C140.058 29.652 140.106 30.108 140.106 30.42V30.942C139.722 31.182 139.092 31.302 138.216 31.302H134.526C134.526 32.586 134.622 33.408 134.814 33.768C135.102 34.296 135.462 34.626 135.894 34.758C136.17 34.842 136.494 34.884 136.866 34.884C137.91 34.884 138.864 34.458 139.728 33.606L140.124 34.02C140.076 34.068 139.962 34.188 139.782 34.38C139.602 34.56 139.482 34.68 139.422 34.74C139.362 34.8 139.248 34.914 139.08 35.082C138.912 35.238 138.78 35.346 138.684 35.406C138.6 35.466 138.474 35.556 138.306 35.676C138.15 35.796 138.012 35.88 137.892 35.928C137.784 35.976 137.646 36.036 137.478 36.108C137.202 36.216 136.878 36.27 136.506 36.27C135.786 36.27 135.168 36.132 134.652 35.856C134.148 35.568 133.77 35.184 133.518 34.704C133.038 33.828 132.798 32.784 132.798 31.572C132.798 30.36 132.93 29.442 133.194 28.818ZM134.562 30.492H135.588C137.184 30.492 138.132 30.384 138.432 30.168C138.432 29.652 138.348 29.208 138.18 28.836C137.868 28.116 137.316 27.756 136.524 27.756C135.732 27.756 135.204 27.96 134.94 28.368C134.688 28.764 134.562 29.472 134.562 30.492ZM144.152 29.484L144.134 34.362C144.134 34.734 144.242 34.98 144.458 35.1C144.674 35.208 144.998 35.292 145.43 35.352C145.874 35.412 146.114 35.442 146.15 35.442V36H141.11V35.388C141.398 35.352 141.59 35.334 141.686 35.334C141.782 35.322 141.902 35.286 142.046 35.226C142.202 35.154 142.292 35.094 142.316 35.046C142.34 34.986 142.376 34.866 142.424 34.686C142.472 34.506 142.496 34.326 142.496 34.146V32.724C142.496 30.312 142.454 28.896 142.37 28.476C142.274 28.008 141.926 27.774 141.326 27.774L141.29 27.09C141.77 27.042 142.262 26.928 142.766 26.748C143.27 26.568 143.594 26.478 143.738 26.478C143.882 26.478 143.984 26.55 144.044 26.694C144.104 26.826 144.134 27.072 144.134 27.432L144.152 28.116C145.208 27.096 146.042 26.586 146.654 26.586C147.098 26.586 147.404 26.64 147.572 26.748C147.74 26.856 147.824 27.054 147.824 27.342C147.824 27.438 147.728 28.086 147.536 29.286H146.888C146.828 28.386 146.522 27.936 145.97 27.936C145.658 27.936 145.274 28.08 144.818 28.368C144.374 28.644 144.152 29.016 144.152 29.484ZM151.828 36.36C151.492 36.36 151.12 35.868 150.712 34.884C150.304 33.876 150.1 33.24 150.1 32.976C150.1 32.688 150.304 32.232 150.712 31.608C151.144 30.984 151.564 30.672 151.972 30.672C152.38 30.672 152.848 31.116 153.376 32.004C153.928 32.892 154.204 33.516 154.204 33.876C154.204 34.236 153.904 34.74 153.304 35.388C152.728 36.036 152.236 36.36 151.828 36.36Z" fill="#797979"/>
</svg>
